<svg xmlns="http://www.w3.org/2000/svg" viewBox="0 0 64 64" fill="none" stroke="currentColor" stroke-width="2" stroke-linecap="round" stroke-linejoin="round">
  <!-- Fire/flame icon with shield -->
  <path d="M32 56 C20 56 12 46 12 36 C12 26 20 20 24 14 C24 22 28 24 32 20 C36 24 40 22 40 14 C44 20 52 26 52 36 C52 46 44 56 32 56Z" fill="currentColor" opacity="0.3"/>
  <path d="M32 56 C20 56 12 46 12 36 C12 26 20 20 24 14 C24 22 28 24 32 20 C36 24 40 22 40 14 C44 20 52 26 52 36 C52 46 44 56 32 56Z"/>
  <!-- Inner flame -->
  <path d="M32 52 C26 52 22 46 22 40 C22 34 26 30 28 26 C28 32 30 33 32 30 C34 33 36 32 36 26 C38 30 42 34 42 40 C42 46 38 52 32 52Z" fill="currentColor" opacity="0.6"/>
  <!-- Shield cross (fireproof symbol) -->
  <path d="M32 36 L32 48" stroke-width="3"/>
  <path d="M26 42 L38 42" stroke-width="3"/>
</svg>
