<svg xmlns="http://www.w3.org/2000/svg" viewBox="0 0 64 64" fill="none" stroke="currentColor" stroke-width="2" stroke-linecap="round" stroke-linejoin="round">
  <!-- Detector device -->
  <rect x="20" y="8" width="24" height="16" rx="3" fill="currentColor" opacity="0.2"/>
  <rect x="20" y="8" width="24" height="16" rx="3"/>
  <!-- Screen -->
  <rect x="24" y="12" width="16" height="8" rx="1"/>
  <!-- Handle -->
  <rect x="28" y="24" width="8" height="20" rx="2" fill="currentColor" opacity="0.3"/>
  <rect x="28" y="24" width="8" height="20" rx="2"/>
  <!-- Scan waves -->
  <path d="M12 52 C12 52 20 44 32 44 C44 44 52 52 52 52" opacity="0.3"/>
  <path d="M16 56 C16 56 22 50 32 50 C42 50 48 56 48 56" opacity="0.5"/>
  <path d="M20 60 C20 60 24 56 32 56 C40 56 44 60 44 60" opacity="0.7"/>
  <!-- Detection point -->
  <circle cx="32" cy="54" r="4" fill="currentColor"/>
  <circle cx="32" cy="54" r="2" fill="none" stroke="currentColor" stroke-width="1"/>
</svg>
